# xmcd
#
# Track frame offsets: 
#        150
#        4290
#        19383
#        34425
#        44968
#        60878
#        78003
#        96033
#        111990
#        127690
#        144508
#        157930
#        170870
#        228885
#
# Disc length: 3198 seconds
#
# Revision: 1
# Processed by: cddbd v1.5PL3 Copyright (c) Steve Scherf et al.
# Submitted via: ExactAudioCopy v0.95a5
#
DISCID=b10c7c0e
DTITLE=Chocolate Genius - Godmusic
DYEAR=2001
DGENRE=Neo Soul
TTITLE0=Perfidia
TTITLE1=For One More Look At You
TTITLE2=Love
TTITLE3=My Endless Fall
TTITLE4=The Eyes Of The Lord
TTITLE5=Bossman Piss (In My Lemonade)
TTITLE6=To Serve Music
TTITLE7=Planet Rock
TTITLE8=Infidel Blues
TTITLE9=Glorious
TTITLE10=Pocket Mouse
TTITLE11=Birth Control
TTITLE12=Godmusic
TTITLE13=Data Track
EXTD=
EXTT0=
EXTT1=
EXTT2=
EXTT3=
EXTT4=
EXTT5=
EXTT6=
EXTT7=
EXTT8=
EXTT9=
EXTT10=
EXTT11=
EXTT12=
EXTT13=
PLAYORDER=
